<?xml version="1.0" encoding="UTF-8"?>
<svg xmlns="http://www.w3.org/2000/svg" version="1.1" viewBox="0 0 693.6 419.4">
  <defs>
    <style>
      .cls-1 {
        fill: #ffe81f;
      }
    </style>
  </defs>
  <!-- Generator: Adobe Illustrator 28.7.1, SVG Export Plug-In . SVG Version: 1.2.0 Build 142)  -->
  <g>
    <g id="Layer_1">
      <g id="Layer_2">
        <path class="cls-1" d="M148.7,221.2l8.7,25.5c4.7,13.8,8.9,24.8,9.4,24.8s0,0,0,0c.6-.5,17.6-49.8,17.6-49.8h32.9l-39.7,115.6h-22.9s-24.4-70.5-24.3-70.7l-25.5,69.9h-22.6l-39.2-115.1h32.7s17.9,50.8,18.2,50.8,0,0,0,0l17.9-50.8h36.8M32,213.2l3.6,10.6,39.2,115.1,1.8,5.4h34l1.9-5.3,17.7-48.5c1.5,4.4,3.2,9.2,4.8,14,6.1,17.7,12.2,35.3,12.2,35.3l1.9,5.4h34.3l1.9-5.4,39.7-115.6,3.6-10.6h-49.8l-1.9,5.4c-3,8.6-6.9,20-10.3,29.7-.5-1.5-1-3-1.6-4.6l-8.7-25.5-1.8-5.4h-48.1l-1.9,5.3-10.5,29.7c-3.5-9.7-7.5-21-10.5-29.7l-1.9-5.3h-5.7s-32.7,0-32.7,0h-11.2Z"/>
        <path class="cls-1" d="M655.3,220.8v30.3c0,0-32.7-.1-49.3-.1s-9.3,0-9.4,0c-2.9.5-4.7,6.6-3.9,9.3.4,1.4,3.4,5.8,6.6,9.8,3.2,4.1,8.5,10.7,11.8,14.7,8.3,10.4,9.5,12.4,10.2,18.4,1.2,9.7-3.3,20.2-11.8,27.1-8.5,6.9-8.1,7-71.4,7h-2.8c-38.5,0-58.8-.3-61.8-1-5.3-1.2-13.6-8-35.8-29.3-8-7.6-15.3-14.3-15.7-14.3,0,0,0,0,0,0l-.3,44.6-35.9-.2-.2-115h80.1c24.1.9,40.5,24.9,37.2,40.2-.7,3.5-2.6,8.5-4.2,11.2-3.2,5.5-11.4,12.6-18,15.6-2.4,1.1-4.4,2.4-4.4,2.9,0,1.7,8.1,9.6,11.1,10.9,2.6,1.1,10.1,1.3,43.2,1.3s7.4,0,10.6,0c33.3,0,31.6-.2,34.2-5.7,1.8-3.8.4-6.1-12.2-20.4-16.1-16-14.4-23.6-14.5-29.3-.2-6.8,5.1-28.1,32.8-28.1h73.8M440.2,273.9c15.4,0,18.5-.2,21.8-1.7,11-4.8,11.6-19,1-25.3-2.3-1.4-5.3-1.6-22-1.7h-19.3c.2,0,0,27.5,0,27.5,0,0,4.8,1.2,18.5,1.2M663.3,212.8h-81.8c-16,0-25.5,6.3-30.6,11.6-8.3,8.6-10.3,19.5-10.2,24.6,0,.4,0,.9,0,1.3,0,8.3,1.2,17.8,16.7,33.2,3.1,3.5,8.2,9.2,10.1,12.1-4.2.5-15,.5-26.3.5h-10.6c-19.9,0-36.7,0-40.1-.7-.5-.3-1.2-.9-1.9-1.5,6.9-4.2,13.8-10.8,17.1-16.4,2-3.4,4.2-9.2,5.1-13.6,2-9.6-1.3-21.2-9-31.1-9-11.5-22-18.3-35.7-18.8h-.1s-.1,0-.1,0h-88.1v8s.2,115,.2,115v7.9s8,0,8,0l35.9.2h8s0-8,0-8l.2-26.7c.7.7,1.5,1.4,2.3,2.2,24.2,23.2,32.4,29.7,39.6,31.3,2,.4,5.3,1.2,63.5,1.2h2.8c31.5,0,47.4,0,56.8-.9,10.8-1,14.3-3.5,19.5-7.7h.2c10.7-8.8,16.3-22,14.7-34.4-1-8.1-3.2-11.5-11.9-22.4l-2.6-3.2c-3-3.8-6.7-8.4-9.2-11.5-2-2.5-3.5-4.7-4.5-6.1,1.2,0,2.8,0,4.9,0,16.4,0,48.9.1,49.2.1h8s0-8,0-8v-30.3c0,0,0-8,0-8h0ZM429.7,265.6c0-2,0-4.3,0-6.6,0-2,0-4,0-5.8h11.2c6.4,0,16.1.1,18,.7,2.4,1.5,3.8,3.7,3.6,6.1,0,1.3-.7,3.6-3.8,5-1.8.8-4.5,1-18.6,1s-7.9-.1-10.4-.3h0Z"/>
        <path class="cls-1" d="M312.9,220.3l40.3,115.9h-32.8c0,.1-5.5-17.3-5.5-17.3l-58.7-.5-5.2,17.4-32.5-.3,39.8-115.2h54.6M286.5,237.3c0,.3-5.1,14.2-10.2,28.1-5.1,14-10.3,28-10.3,28.1,0,0,0,0,0,0h0c.1,0,18.3,0,30,0s9.5,0,9.5,0c0,0,0,0,0,0h0s0,0,0,0c-.2-.5-18.9-55.5-19-56.2,0,0,0,0,0,0h0s0,0,0,0M318.6,212.3h-5.7s-54.6,0-54.6,0h-5.7s-1.9,5.4-1.9,5.4l-39.8,115.2-3.6,10.5h11.1c0,.1,32.5.5,32.5.5h6c0,0,1.7-5.7,1.7-5.7l3.5-11.7,46.9.4,3.7,11.8,1.8,5.6h5.9s32.8-.2,32.8-.2h11.2c0,0-3.7-10.6-3.7-10.6l-40.3-115.9-1.9-5.4h0ZM277.5,285.4c1.5-4.1,3.6-9.7,6.3-17.3.9-2.4,1.7-4.6,2.4-6.5.7,2,1.4,4.1,2.2,6.4.6,1.9,3.5,10.3,5.9,17.4-7.2,0-12.7,0-16.8,0h0Z"/>
        <path class="cls-1" d="M326.5,81.9v28.6h-57.3v87.5h-34.1v-87.5l-66.9.2c-8.1,0-9.1,6.4-9.1,8.9s2,6,12.8,19.7c7,8.9,13.5,17.8,14.3,19.7,4.6,10.7-1.4,27.3-12.3,34.1-7.8,4.8-6.5,4.9-64.3,4.9H37.9v-32.1h97.9l2.9-2c1.9-1.4,3.1-3.2,3.5-5.8.6-3.7.3-4.2-11.8-17.8-14.3-16.1-15.8-19-15.1-29.3.8-11.7,11.3-28.8,29.6-28.8l181.6-.3M334.5,73.9h-8s-181.6.3-181.6.3c-10.5,0-20.2,4.5-27.3,12.7-5.8,6.7-9.6,15.4-10.2,23.5-1,13.5,2.1,18.4,17.1,35.2,4.3,4.9,8.4,9.5,9.8,11.5,0,0,0,.1,0,.2,0,0,0,0,0,0l-.8.6H29.9v48.1h79.7c28.5,0,42.6,0,50.9-.6,9.5-.7,12.5-2.3,17.1-5.1l.6-.4c14.3-8.8,21.6-29.8,15.4-44.1-1.9-4.4-14-19.7-15.4-21.5-3.8-4.8-10.1-12.7-11.1-15,0-.2,0-.4.1-.5.2,0,.5,0,1,0l58.9-.2v87.5h50.2v-87.5h57.3v-44.6h0Z"/>
        <path class="cls-1" d="M419.5,82.9l40.2,116.2-32.8-.2-5.3-17.4-58.4-.3-5.2,16.8h-33.4l39.7-115.1h55.2M372.7,156.5h39.8c0,0,0,0,0,0,.1,0-19.3-57.2-19.5-57.2h0c-.1,0-20.8,57.3-20.3,57.3M425.2,74.9h-66.6l-1.9,5.4-39.7,115.1-3.7,10.6h50.5l1.8-5.6,3.5-11.1,46.6.2,3.6,11.8,1.7,5.6h5.9s32.8.2,32.8.2h11.3c0,0-3.7-10.6-3.7-10.6l-40.2-116.2-1.9-5.4h0ZM383.9,148.5c2.5-7,5.9-16.7,9-25.3,2.9,8.6,6.2,18.2,8.6,25.3h-17.6Z"/>
        <path class="cls-1" d="M532.4,82.9c25.9,0,43.9.4,47.4,1,8,1.4,15.2,5.7,20.7,12.2,5.7,6.9,7,10.1,7.7,19.5,1.1,13.3-5.2,24.7-17.7,32.1-3.6,2.2-7.4,4.3-8.3,4.7-1.4.6-1.2,1.3,1.3,4.3,1.6,1.9,4.5,4.7,6.3,6.1l3.4,2.6,62.1.9.6,31.7h-38.1c-29.4,0-38.9-.3-41.6-1.2-4.1-1.4-14.1-9.8-34.3-29l-14.4-13.7.2,44h-37v-115.1h41.8M526.9,134.6h19.7c19.1,0,19.7,0,22.5-2.1,4.9-3.7,6.6-7.4,6.1-13.2-.5-6-2.8-9.1-8.6-11.6-3.2-1.4-6.4-1.7-21.7-1.7h-17.9v28.6M532.4,74.9h-49.8v131.1h53.1v-8s-.1-25.2-.1-25.2l.8.8c25,23.8,32.4,29.2,37.2,30.8,3.7,1.3,10,1.6,44.2,1.6h46.2l-.2-8.2-.6-31.7v-7.7c-.1,0-7.9-.1-7.9-.1l-59.4-.9-1.2-1c-.4-.3-.9-.7-1.4-1.2.4-.3.9-.5,1.2-.7,15-9,22.9-23.4,21.6-39.7-.9-11-2.8-15.9-9.5-24-6.6-8-15.6-13.3-25.4-15-5.5-.9-32.9-1.1-48.7-1.1h0ZM534.9,114.1h9.9c14,0,16.8.2,18.5,1,3.2,1.4,3.6,2.1,3.8,5,.3,2.8,0,4-2.9,6.1,0,0-.2.1-.2.2-1.9.3-8.8.3-17.4.3h-11.7v-12.6h0Z"/>
      </g>
    </g>
  </g>
</svg>